<?xml version="1.0" encoding="utf-8"?>
<!-- Generator: Adobe Illustrator 16.0.0, SVG Export Plug-In . SVG Version: 6.00 Build 0)  -->
<!DOCTYPE svg PUBLIC "-//W3C//DTD SVG 1.1//EN" "http://www.w3.org/Graphics/SVG/1.1/DTD/svg11.dtd">
<svg version="1.1" id="Layer_1" xmlns="http://www.w3.org/2000/svg" xmlns:xlink="http://www.w3.org/1999/xlink" x="0px" y="0px"
	 width="300px" height="150px" viewBox="0 0 300 150" enable-background="new 0 0 300 150" xml:space="preserve">
<g>
	<g>
		<path fill="#FFFFFF" d="M11.49,118.464l0.809,2.545c0.437,1.546,0.212,2.444-0.671,2.693c-1.326,0.373-2.647,0.553-3.963,0.536
			c-1.316-0.014-2.064-0.34-2.243-0.978c-0.18-0.632-0.644-2.857-1.391-6.671c-0.75-3.814-1.388-6.659-1.918-8.537l-1.38-4.887
			c-0.749-2.651-0.924-4.33-0.527-5.039c0.396-0.706,1.151-1.785,2.263-3.231c1.112-1.445,1.985-2.261,2.62-2.438
			c0.636-0.182,1.068-0.182,1.296-0.01c0.229,0.175,0.428,0.565,0.599,1.172c0.826,2.93,1.053,5.846,0.682,8.751
			c0.611,3.229,1.091,5.447,1.434,6.662c1.382-6.292,2.413-10.46,3.09-12.499c1.139-3.778,2.536-5.903,4.193-6.371
			c1.049-0.296,2.147-0.158,3.292,0.412c1.145,0.573,1.889,1.466,2.231,2.681c0.344,1.214,0.652,2.365,0.93,3.448
			c0.275,1.085,0.471,1.939,0.588,2.562c0.117,0.626,0.197,1.019,0.245,1.185c0.095-0.505,0.685-2.012,1.765-4.523
			c1.079-2.511,1.824-4.15,2.231-4.922c0.409-0.771,0.86-1.553,1.351-2.351c0.911-1.626,1.877-2.586,2.9-2.874
			c1.021-0.288,2.098-0.174,3.226,0.341c1.131,0.518,1.858,1.354,2.185,2.514c0.688,2.431,1.433,6.081,2.241,10.95
			c0.807,4.869,1.387,7.926,1.738,9.169c0.351,1.242,0.692,1.817,1.022,1.724c0.923-0.321,1.89-1.86,2.9-4.62
			c1.01-2.759,1.822-6.162,2.438-10.214c0.615-4.049,1.104-6.125,1.462-6.226c0.36-0.101,0.602,0.069,0.727,0.511
			c0.436,1.546,0.328,4.231-0.321,8.051c-1.745,10.51-4.108,16.185-7.09,17.027c-1.879,0.529-3.495,0.508-4.848-0.064
			c-0.496-0.276-0.974-1.23-1.433-2.86c-0.46-1.629-1.057-4.321-1.79-8.081c-0.732-3.756-1.356-6.547-1.869-8.37
			c-0.516-1.823-1.076-2.648-1.684-2.476c-0.718,0.201-1.936,1.857-3.65,4.965c-1.717,3.109-2.52,5.183-2.403,6.222
			c0.199,1.973,1.178,6.078,2.94,12.317c0.437,1.548,0.24,2.438-0.589,2.671c-1.271,0.359-2.523,0.518-3.756,0.479
			c-1.233-0.038-1.939-0.375-2.119-1.011c-0.178-0.635-0.781-3.402-1.806-8.301c-1.023-4.896-1.813-8.326-2.366-10.287
			c-0.554-1.961-1.149-2.851-1.783-2.673c-0.635,0.181-1.634,2.503-2.996,6.972c-1.363,4.469-1.957,7.484-1.784,9.045
			C10.679,115.115,11.008,116.753,11.49,118.464z"/>
		<path fill="#FFFFFF" d="M48.678,105.264l-1.569-9.525c-1.322-5.996-1.765-9.336-1.328-10.021c0.437-0.683,1.249-1.729,2.438-3.137
			c1.188-1.408,2.104-2.183,2.749-2.324c0.643-0.143,1.075-0.118,1.292,0.068c0.219,0.187,0.401,0.615,0.549,1.288
			c0.531,2.41,0.535,4.966,0.014,7.664c0.297,5.343,0.809,9.665,1.537,12.972c0.729,3.307,1.485,4.874,2.269,4.699
			c1.345-0.296,2.639-1.828,3.879-4.601c1.241-2.77,2.273-6.684,3.097-11.744c-0.216-1.243-0.446-2.56-0.693-3.944
			c-0.247-1.384-0.413-2.407-0.498-3.063c-0.087-0.655-0.146-1.128-0.18-1.415c-0.033-0.286,0.567-1.228,1.802-2.819
			c1.236-1.596,2.26-2.482,3.072-2.661c0.812-0.18,1.453,0.797,1.923,2.926c0.124,0.561,0.208,1.688,0.261,3.38
			c0.049,1.694-0.043,2.948-0.274,3.762c0.428,4.078,0.886,7.62,1.372,10.627c3.961-8.158,6.079-12.475,6.358-12.948
			c0.277-0.472,0.555-0.737,0.837-0.8c0.559-0.124,0.902,0.096,1.026,0.654c0.073,0.336,0.04,0.726-0.096,1.167
			c-1.214,3.03-3.725,8.432-7.535,16.203c1.133,6.741,1.909,11.332,2.327,13.766c1.288,7.177,1.396,12.398,0.323,15.661
			c-1.074,3.264-3.796,5.376-8.166,6.339c-1.905,0.421-3.812,0.237-5.718-0.548c-1.907-0.783-3.172-2.592-3.795-5.421
			s-0.185-5.968,1.319-9.413c1.502-3.445,4.435-8.88,8.79-16.304l-1.514-9.273c-0.979,4.624-2.156,8.219-3.528,10.782
			c-1.374,2.565-3.184,4.094-5.425,4.588s-3.794,0.25-4.657-0.736C50.072,110.127,49.32,108.177,48.678,105.264z M66.679,109.759
			c-4.869,8.301-6.847,14.521-5.934,18.669c0.421,1.905,1.103,3.4,2.046,4.485c0.944,1.084,2.005,1.498,3.182,1.238
			c1.794-0.396,2.838-1.653,3.135-3.774c0.295-2.124-0.048-6.219-1.033-12.289L66.679,109.759z"/>
		<path fill="#FFFFFF" d="M103.031,72.08c2.608-0.398,4.911,0.223,6.902,1.863c1.993,1.641,3.276,4.157,3.854,7.553
			c2.22-1.037,4.153-2.174,5.792-3.41c1.639-1.238,2.515-1.864,2.629-1.882c0.341-0.054,0.555,0.206,0.641,0.771
			c0.087,0.567-0.586,1.571-2.021,3.008c-1.436,1.438-3.679,3-6.73,4.687c0.091,5.151-1.355,9.364-4.338,12.634
			c-2.982,3.272-6.177,5.167-9.58,5.688c-3.403,0.519-5.864-0.395-7.385-2.747c-1.522-2.35-2.697-6.249-3.528-11.695
			c-0.832-5.445-1.225-10.666-1.176-15.667c0.05-4.999,0.482-8.999,1.302-11.998c0.818-2.999,1.779-5.351,2.884-7.058
			c1.101-1.707,2.25-2.65,3.442-2.833c0.565-0.086,1.194,0.514,1.885,1.801c0.69,1.288,1.188,2.924,1.49,4.909
			c0.669,4.368,0.653,9.595-0.042,15.68C100.059,72.767,101.387,72.333,103.031,72.08z M97.286,59.549
			c-0.364-2.382-0.858-3.526-1.481-3.43c-0.511,0.079-0.933,1.404-1.265,3.981c-0.333,2.575-0.473,6.022-0.423,10.338
			c0.051,4.317,0.393,8.547,1.024,12.687C97.265,71.947,97.979,64.088,97.286,59.549z M109.201,86.811
			c-0.447,0.126-1.391,0.3-2.838,0.521c-1.446,0.22-3.111-0.033-4.991-0.762c-1.884-0.728-3.27-1.924-4.162-3.588
			c-0.352,1.507-0.796,2.968-1.333,4.384c0.771,4.294,1.584,7.333,2.438,9.117c0.853,1.786,1.904,2.583,3.152,2.393
			c1.983-0.305,3.799-1.435,5.444-3.4C108.556,93.513,109.318,90.624,109.201,86.811z M102.139,75.351
			c-0.795,0.122-1.396,0.461-1.805,1.016c-0.409,0.557-0.551,1.23-0.43,2.025c0.269,1.758,1.271,3.101,3.009,4.023
			c1.738,0.925,3.714,1.219,5.925,0.88c-0.413-2.316-1.177-4.29-2.297-5.918C105.422,75.75,103.953,75.075,102.139,75.351z"/>
		<path fill="#FFFFFF" d="M129.61,98.898c-3.194,0.361-5.867-0.56-8.025-2.77c-2.156-2.208-3.41-4.853-3.762-7.932
			c-0.708-6.213,0.068-11.065,2.328-14.559c2.258-3.49,5.468-5.474,9.632-5.948c1.936-0.22,3.595,0.126,4.969,1.037
			c1.373,0.913,2.165,2.281,2.373,4.105c0.39,3.42-0.726,6.449-3.34,9.085c-2.616,2.637-6.001,4.25-10.148,4.838
			c0.479,2.198,1.455,4.036,2.924,5.516c1.468,1.478,3.058,2.119,4.768,1.925s3.203-0.769,4.481-1.723
			c1.277-0.953,2.4-2.236,3.373-3.851c2.039-3.406,3.685-7.203,4.941-11.39c0.338-1.079,0.61-1.86,0.815-2.346
			c0.204-0.484,0.463-0.746,0.776-0.781c0.312-0.036,0.497,0.174,0.549,0.63c0.324,2.852-0.93,7.327-3.756,13.421
			C139.441,94.688,135.141,98.268,129.61,98.898z M123.404,84.704c3.296-0.953,5.639-2.316,7.026-4.093
			c1.386-1.773,1.934-3.946,1.641-6.51c-0.292-2.566-1.265-3.755-2.918-3.566c-1.996,0.228-3.52,1.803-4.574,4.722
			C123.526,78.179,123.134,81.327,123.404,84.704z"/>
		<path fill="#FFFFFF" d="M153.904,69.651l0.067-1.3c-0.086-1.029-0.717-1.495-1.887-1.399c-1.173,0.097-2.239,0.948-3.202,2.552
			c-0.961,1.604-1.402,2.893-1.323,3.865c0.08,0.974,0.198,1.741,0.362,2.302c0.161,0.564,0.326,1.025,0.501,1.384
			c0.173,0.36,0.452,0.783,0.839,1.269c0.385,0.487,0.673,0.839,0.863,1.052l1.043,1.126c0.446,0.538,0.765,0.886,0.949,1.043
			c2.771-2.702,6.093-5.737,9.961-9.108c0.215-0.19,0.465-0.297,0.751-0.321c0.57-0.046,0.885,0.244,0.936,0.873
			c0.05,0.63-0.165,1.137-0.652,1.522c-3.468,2.645-6.719,5.474-9.752,8.487c1.405,1.727,2.201,3.677,2.378,5.85
			c0.18,2.175-0.498,4.101-2.03,5.78c-1.533,1.682-3.584,2.628-6.158,2.836c-2.573,0.212-3.961-0.91-4.164-3.372
			c-0.145-1.771,1.521-4.643,4.994-8.613c-0.313-0.318-0.874-0.835-1.682-1.546c-0.806-0.711-1.414-1.279-1.823-1.707
			c-0.411-0.427-0.902-0.991-1.479-1.692c-1.03-1.353-1.616-2.859-1.751-4.519c-0.277-3.375,0.583-6.194,2.586-8.461
			c2.002-2.265,4.232-3.499,6.692-3.701c1.545-0.127,2.779,0.191,3.706,0.949c0.926,0.758,1.423,1.566,1.493,2.425
			c0.16,1.945-0.219,2.954-1.134,3.029C154.303,70.31,153.94,70.111,153.904,69.651z M149.801,87.002
			c-2.101,2.477-3.093,4.414-2.977,5.815c0.114,1.402,0.888,2.042,2.316,1.926c0.857-0.071,1.543-0.473,2.061-1.205
			C152.318,91.72,151.852,89.542,149.801,87.002z"/>
		<path fill="#FFFFFF" d="M177.694,80.493c-3.967,9.886-7.512,14.921-10.632,15.103c-3.123,0.183-4.979-0.084-5.565-0.796
			c-0.589-0.713-1.003-3.161-1.246-7.344c-0.243-4.18-0.195-10.248,0.147-18.2c-2.897-0.406-4.483-1.492-4.759-3.257
			c-0.054-0.917,0.521-1.41,1.725-1.48c1.202-0.07,2.274,0.098,3.22,0.502c0.274-4.154,0.632-8.371,1.073-12.65
			c0.108-1.097,0.592-2.16,1.452-3.188c0.858-1.027,1.719-1.565,2.579-1.615c0.744-0.043,1.185,1.108,1.321,3.458
			c0.063,1.089-0.046,6.124-0.328,15.106c1.53-0.376,3.201-1.048,5.013-2.016c1.813-0.966,2.891-1.461,3.234-1.481
			c1.03-0.06,1.564,0.226,1.603,0.856c0.088,0.569-0.924,1.419-3.043,2.547c-2.119,1.13-4.424,2.025-6.914,2.687
			c-0.199,8.404-0.176,14.754,0.074,19.05c0.134,2.293,0.544,3.416,1.231,3.377c1.027-0.115,2.334-1.399,3.915-3.848
			c1.582-2.449,3.107-5.599,4.579-9.45c1.472-3.849,2.394-5.786,2.767-5.807c0.372-0.023,0.572,0.197,0.6,0.654
			C179.834,74.304,179.151,76.901,177.694,80.493z"/>
		<path fill="#FFFFFF" d="M203.926,73.053l0.618-4.401c-0.011-0.63-0.222-1.201-0.63-1.711c-0.41-0.51-0.931-0.759-1.562-0.75
			c-2.122,0.036-3.934,1.656-5.43,4.867c-1.497,3.208-2.224,6.276-2.175,9.202c0.046,2.927,0.688,5.283,1.921,7.072
			c1.234,1.788,2.727,2.667,4.476,2.639c1.751-0.028,3.309-0.455,4.671-1.28c1.365-0.826,2.607-1.993,3.732-3.505
			c2.357-3.193,4.366-6.813,6.021-10.858c0.442-1.041,0.789-1.791,1.04-2.254c0.251-0.463,0.534-0.698,0.848-0.703
			c0.316-0.004,0.479,0.221,0.486,0.681c0.031,1.893-0.593,4.172-1.87,6.83c-1.275,2.661-2.348,4.703-3.215,6.123
			c-0.868,1.421-1.976,2.914-3.327,4.486c-2.817,3.261-6.378,4.924-10.68,4.994c-3.271,0.053-5.771-1.068-7.5-3.364
			c-1.731-2.297-2.617-4.765-2.66-7.403c-0.107-6.542,1.233-11.542,4.018-15.001c2.785-3.459,6.356-5.226,10.718-5.296
			c1.837-0.03,3.292,0.421,4.369,1.35c1.076,0.929,1.626,1.996,1.646,3.201c0.036,2.239-0.34,3.909-1.124,5.012
			c-0.786,1.104-1.753,1.663-2.9,1.682C204.44,74.679,203.944,74.143,203.926,73.053z"/>
		<path fill="#FFFFFF" d="M239.869,76.033c2.315-0.671,3.93-1.265,4.837-1.782c0.905-0.516,1.592-0.909,2.061-1.182l1.052-0.57
			c0.291-0.162,0.525-0.24,0.698-0.236c0.458,0.015,0.679,0.28,0.662,0.797c-0.017,0.517-0.936,1.391-2.754,2.624
			c-1.819,1.234-4.066,2.325-6.736,3.272c-0.557,4.805-2.203,8.656-4.935,11.552c-2.735,2.898-6.542,4.269-11.416,4.112
			c-3.555-0.114-6.233-1.622-8.035-4.521c-1.801-2.9-2.64-6.256-2.518-10.07c0.121-3.813,1.37-7.376,3.746-10.688
			c2.374-3.309,5.337-4.909,8.896-4.794c1.642-1.096,3.567-1.608,5.775-1.537c2.207,0.071,4.221,1.313,6.036,3.725
			C239.058,69.147,239.933,72.246,239.869,76.033z M234.137,80.24l-3.103,0.073c-2.64-0.085-4.851-0.945-6.636-2.582
			c-1.784-1.636-2.646-3.4-2.584-5.292c0.06-1.892,0.427-3.518,1.103-4.873c-2.528,1.87-3.886,5.673-4.069,11.408
			c-0.089,2.754,0.397,5.396,1.467,7.928c1.066,2.53,2.835,3.838,5.3,3.917c2.466,0.078,4.421-0.905,5.865-2.956
			C232.924,85.813,233.809,83.273,234.137,80.24z M229.262,65.789c-0.918-0.031-1.648,0.364-2.191,1.177
			c-0.542,0.816-0.829,1.71-0.86,2.685c-0.069,2.123,0.606,3.868,2.028,5.233c1.418,1.367,3.104,2.081,5.055,2.143l1.03,0.032
			c-0.025-2.813-0.416-5.379-1.173-7.701C232.394,67.038,231.096,65.847,229.262,65.789z"/>
		<path fill="#FFFFFF" d="M269.002,78.08c2.344-0.57,3.98-1.095,4.908-1.573c0.928-0.476,1.631-0.841,2.111-1.092l1.074-0.523
			c0.299-0.15,0.533-0.219,0.706-0.207c0.458,0.036,0.666,0.31,0.629,0.825c-0.038,0.516-0.994,1.35-2.864,2.504
			c-1.872,1.154-4.162,2.146-6.87,2.979c-0.762,4.776-2.573,8.554-5.426,11.331c-2.857,2.777-6.718,3.982-11.58,3.616
			c-3.549-0.265-6.16-1.886-7.836-4.86c-1.674-2.976-2.369-6.364-2.083-10.169c0.285-3.805,1.686-7.311,4.2-10.517
			c2.515-3.206,5.545-4.677,9.094-4.41c1.687-1.024,3.633-1.453,5.835-1.288c2.203,0.166,4.161,1.493,5.873,3.98
			C268.485,71.167,269.228,74.3,269.002,78.08z M263.094,82.037l-3.104-0.06c-2.633-0.198-4.804-1.152-6.517-2.864
			c-1.716-1.711-2.498-3.511-2.357-5.398c0.143-1.89,0.58-3.496,1.312-4.822c-2.606,1.76-4.126,5.502-4.555,11.224
			c-0.208,2.746,0.167,5.407,1.125,7.982c0.957,2.573,2.666,3.954,5.128,4.14c2.459,0.185,4.455-0.714,5.984-2.7
			C261.642,87.555,262.635,85.054,263.094,82.037z M258.843,67.389c-0.914-0.068-1.662,0.294-2.239,1.084
			c-0.578,0.791-0.901,1.674-0.975,2.646c-0.16,2.117,0.441,3.89,1.8,5.316c1.361,1.426,3.014,2.21,4.961,2.356l1.028,0.078
			c0.095-2.812-0.187-5.394-0.842-7.746C261.919,68.772,260.674,67.528,258.843,67.389z"/>
		<path fill="#FFFFFF" d="M297.052,103.108l2.339,0.017c0.455,0.054,0.656,0.309,0.601,0.766c-0.094,0.797-0.705,1.331-1.837,1.603
			c-1.129,0.269-2.377,0.325-3.745,0.161c-2.564-0.303-4.596-1.584-6.088-3.842c-1.494-2.258-3.453-6.333-5.875-12.227
			c-0.597-1.282-0.859-2.238-0.785-2.865c0.103-0.855,1.415-1.71,3.944-2.566c4.112-1.534,6.347-3.811,6.705-6.832
			c0.102-0.854-0.11-1.616-0.638-2.285c-0.528-0.671-1.277-1.062-2.244-1.177c-1.369-0.163-3.183,1.256-5.446,4.251
			c-2.262,2.996-3.889,5.866-4.88,8.609c-0.989,2.743-1.677,5.738-2.062,8.986c-0.188,1.596-0.739,2.339-1.651,2.23
			c-1.311-0.156-2.541-0.489-3.693-1.001c-1.153-0.514-1.693-1.068-1.623-1.667s0.619-3.277,1.648-8.038
			c1.024-4.762,1.693-8.192,2.001-10.295c1.606-11.597,3.344-20.405,5.216-26.424c0.23-0.493,1.118-1.283,2.664-2.371
			c1.545-1.087,2.744-1.581,3.601-1.479c0.854,0.102,1.14,1.218,0.859,3.352c-0.285,2.134-1.296,6.651-3.039,13.551
			c-1.743,6.9-3.076,13.245-3.992,19.029c1.458-3.524,3.505-6.779,6.143-9.76c2.636-2.981,5.092-4.335,7.372-4.065
			c3.875,0.459,5.589,2.57,5.143,6.331c-0.297,2.51-1.307,4.684-3.027,6.532c-1.722,1.847-3.911,3.249-6.566,4.206
			c-0.54,0.165-0.827,0.394-0.86,0.675c-0.035,0.288,0.017,0.582,0.156,0.889c2.838,6.749,5.358,11.556,7.562,14.419
			C295.554,102.584,296.253,103.013,297.052,103.108z"/>
	</g>
	<path fill="#FFFFFF" d="M83.656,125.665c0,0,2.387-0.818,6.565-2.249c1.047-0.349,2.206-0.735,3.47-1.156
		c1.282-0.381,2.67-0.79,4.153-1.229c2.969-0.862,6.314-1.918,10.002-2.826c3.677-0.977,7.672-1.996,11.941-2.888
		c2.131-0.459,4.314-0.968,6.559-1.423c2.253-0.413,4.554-0.837,6.894-1.268c1.171-0.211,2.353-0.427,3.541-0.643
		c1.196-0.183,2.398-0.367,3.609-0.552c2.423-0.363,4.876-0.734,7.348-1.107c4.97-0.551,10.005-1.259,15.078-1.627
		c2.533-0.198,5.062-0.487,7.593-0.608c2.53-0.127,5.053-0.252,7.553-0.378c2.5-0.146,4.99-0.117,7.445-0.183
		c2.456-0.043,4.882-0.104,7.271-0.031c2.391,0.056,4.74,0.108,7.04,0.16c2.298,0.143,4.548,0.283,6.736,0.419
		c1.093,0.084,2.171,0.166,3.234,0.247c1.059,0.125,2.104,0.248,3.13,0.37c2.054,0.241,4.037,0.471,5.935,0.731
		c3.783,0.678,7.257,1.218,10.295,1.952c1.517,0.371,2.937,0.721,4.243,1.066c1.305,0.357,2.514,0.604,3.577,0.987
		c4.27,1.42,6.662,2.299,6.662,2.301c0.747,0.272,1.129,1.099,0.854,1.843c-0.242,0.657-0.915,1.033-1.583,0.921l-0.099-0.016
		c0,0-2.481-0.409-6.745-1.246c-2.132-0.424-4.781-0.689-7.76-1.195c-1.485-0.275-3.111-0.359-4.798-0.568
		c-1.687-0.193-3.462-0.396-5.313-0.608c-1.867-0.12-3.805-0.285-5.808-0.453c-1.004-0.084-2.022-0.169-3.058-0.256
		c-1.039-0.045-2.095-0.092-3.165-0.138c-2.137-0.116-4.335-0.235-6.578-0.358c-2.251-0.051-4.548-0.103-6.888-0.153
		c-2.336-0.101-4.718-0.066-7.128-0.05c-2.408,0.04-4.849-0.021-7.307,0.099c-2.46,0.095-4.938,0.192-7.425,0.288
		c-2.489,0.087-4.983,0.299-7.48,0.443c-5,0.248-9.976,0.837-14.886,1.268c-2.448,0.29-4.877,0.577-7.276,0.862
		c-1.201,0.141-2.395,0.283-3.58,0.423c-1.179,0.173-2.351,0.345-3.512,0.516c-2.325,0.345-4.611,0.681-6.849,1.013
		c-2.234,0.35-4.409,0.754-6.534,1.115c-4.259,0.683-8.241,1.548-11.937,2.269c-3.71,0.682-7.041,1.521-10.022,2.194
		c-1.489,0.346-2.883,0.668-4.172,0.967c-1.285,0.341-2.466,0.657-3.533,0.94c-4.277,1.099-6.723,1.727-6.723,1.727
		c-0.534,0.138-1.077-0.185-1.216-0.718C82.881,126.352,83.168,125.833,83.656,125.665z"/>
	<g>
		<path fill="#FFFFFF" d="M221.12,16.101c0,0-0.092,0.277-0.34,0.814c-0.246,0.528-0.63,1.286-1.247,2.183
			c-0.628,0.882-1.48,1.925-2.741,2.835c-1.243,0.918-2.935,1.667-4.963,1.664c-1.765,0.027-3.92-0.359-5.938-0.921
			c-2.049-0.589-4.129-1.412-6.229-2.329c-2.093-0.897-4.227-1.964-6.348-2.863c-2.135-0.894-4.363-1.532-6.634-1.823
			c-0.564-0.108-1.138-0.122-1.708-0.146l-0.854-0.04l-0.215-0.01c0.062-0.005-0.113,0.006-0.157,0.009l-0.45,0.027
			c-0.656,0.016-1.051,0.143-1.579,0.23c-0.517,0.144-1.039,0.268-1.538,0.478c-1.006,0.383-1.968,0.895-2.826,1.536
			c-0.872,0.618-1.653,1.348-2.312,2.148c-1.36,1.579-2.174,3.459-2.469,5.281c-0.025,0.457-0.112,0.913-0.088,1.357l0.014,0.752
			l0.061,0.66c0.08,0.872,0.282,1.746,0.545,2.527c0.547,1.572,1.394,2.869,2.366,3.788c0.969,0.928,2.026,1.495,2.943,1.836
			c0.931,0.307,1.7,0.462,2.234,0.521c0.534,0.051,0.82,0.079,0.82,0.079l0.059,0.006c0.319,0.031,0.555,0.315,0.521,0.633
			c-0.028,0.301-0.285,0.524-0.58,0.524c0,0-0.317-0.002-0.913-0.006c-0.599-0.011-1.482-0.098-2.584-0.392
			c-1.088-0.323-2.389-0.904-3.629-1.94c-1.262-1.014-2.327-2.559-3.053-4.381c-0.354-0.923-0.625-1.892-0.771-2.963
			c-0.034-0.268-0.07-0.538-0.104-0.81l-0.046-0.75c-0.051-0.565,0.02-1.132,0.036-1.712c0.278-2.297,1.291-4.582,2.855-6.476
			c0.769-0.962,1.673-1.834,2.692-2.583c1.005-0.771,2.136-1.402,3.344-1.886c0.6-0.256,1.234-0.438,1.876-0.601
			c0.649-0.122,1.435-0.271,1.988-0.272l0.452-0.023l0.293-0.011l0.239,0.013l0.953,0.052c0.637,0.032,1.275,0.058,1.902,0.181
			c2.532,0.323,4.967,1.154,7.189,2.174c2.236,1.027,4.238,2.18,6.269,3.17c2.011,1,3.978,1.89,5.898,2.548
			c1.96,0.635,3.684,1.052,5.554,1.153c1.62,0.093,3.181-0.446,4.335-1.215c1.185-0.752,2.042-1.687,2.687-2.483
			c0.651-0.799,1.082-1.5,1.354-1.979c0.269-0.472,0.393-0.762,0.393-0.762c0.053-0.122,0.193-0.179,0.315-0.126
			c0.116,0.049,0.174,0.179,0.135,0.296L221.12,16.101z"/>
		<path fill="#FFFFFF" d="M216.997,31.018c0,0-0.166,0.106-0.479,0.307c-0.299,0.208-0.787,0.481-1.427,0.825
			c-0.642,0.317-1.427,0.683-2.372,0.994c-0.94,0.32-2.025,0.605-3.227,0.824c-1.202,0.203-2.518,0.335-3.907,0.387
			c-0.349,0.025-0.725,0.028-1.067,0.02c-0.388-0.012-0.762-0.037-1.129-0.072c-0.743-0.075-1.485-0.19-2.23-0.327
			c-2.971-0.534-6.026-1.436-9.025-1.798c-1.473-0.171-2.991-0.221-4.072,0.242c-0.273,0.107-0.497,0.255-0.706,0.417
			c-0.291,0.244-0.622,0.492-0.845,0.707c-0.501,0.438-0.976,0.936-1.294,1.432c-0.686,0.975-0.703,2.07-0.676,3.45
			c0.002,0.347,0.003,0.689,0.005,1.027c0.007,0.317,0.013,0.632,0.021,0.941c-0.006,0.653,0.053,1.216,0.083,1.786
			c0.393,4.688,0.653,7.813,0.653,7.813c0.02,0.242-0.16,0.454-0.401,0.474c-0.206,0.017-0.389-0.11-0.451-0.298l-0.004-0.008
			c0,0-0.256-0.76-0.604-2.108c-0.183-0.673-0.394-1.493-0.594-2.444c-0.206-0.954-0.422-2.018-0.598-3.232
			c-0.075-0.61-0.184-1.271-0.221-1.896c-0.034-0.641-0.071-1.303-0.107-1.984c-0.039-0.68-0.067-1.441,0.049-2.288
			c0.109-0.844,0.437-1.74,0.92-2.476c0.483-0.754,1.055-1.357,1.69-1.931c0.329-0.31,0.613-0.523,0.919-0.767
			c0.4-0.308,0.841-0.568,1.295-0.74c1.843-0.695,3.605-0.52,5.233-0.296c3.263,0.531,6.257,1.555,9.094,2.173
			c0.707,0.156,1.399,0.292,2.073,0.387c0.338,0.046,0.667,0.085,0.977,0.11c0.351,0.024,0.665,0.037,0.992,0.028
			c1.322,0.013,2.57-0.053,3.713-0.191c2.291-0.246,4.129-0.827,5.374-1.311c0.605-0.256,1.088-0.465,1.419-0.65
			c0.328-0.17,0.505-0.261,0.505-0.261c0.207-0.107,0.463-0.024,0.57,0.183C217.246,30.662,217.179,30.9,216.997,31.018z"/>
		<path fill="#FFFFFF" d="M188.979,31.392c0,0-0.202-0.468-0.505-1.172c-0.155-0.342-0.327-0.764-0.486-1.25
			c-0.081-0.236-0.166-0.479-0.253-0.729c-0.079-0.249-0.189-0.492-0.243-0.753c-0.122-0.511-0.245-1.024-0.362-1.504
			c-0.136-0.472-0.146-0.94-0.206-1.326c-0.095-0.775-0.156-1.292-0.156-1.292c-0.023-0.194,0.115-0.372,0.31-0.395
			c0.176-0.021,0.336,0.09,0.384,0.254l0.012,0.042c0,0,0.138,0.481,0.344,1.203c0.115,0.355,0.186,0.783,0.391,1.207
			c0.175,0.428,0.365,0.884,0.554,1.34c0.086,0.23,0.225,0.437,0.332,0.651c0.112,0.211,0.224,0.419,0.33,0.62
			c0.201,0.399,0.426,0.774,0.643,1.099c0.407,0.647,0.681,1.079,0.681,1.079c0.295,0.467,0.155,1.085-0.312,1.381
			c-0.468,0.294-1.085,0.155-1.38-0.312C189.026,31.493,188.999,31.438,188.979,31.392z"/>
		<path fill="#FFFFFF" d="M185.394,32.992c0,0-0.432-0.539-1.074-1.347c-0.324-0.404-0.706-0.877-1.111-1.384
			c-0.207-0.253-0.411-0.529-0.618-0.814c-0.202-0.286-0.426-0.556-0.611-0.866c-0.193-0.3-0.385-0.6-0.575-0.896
			c-0.168-0.311-0.331-0.617-0.49-0.912c-0.333-0.582-0.521-1.186-0.742-1.668c-0.18-0.5-0.29-0.931-0.386-1.224
			c-0.089-0.295-0.14-0.463-0.14-0.463c-0.056-0.181,0.047-0.372,0.228-0.427c0.168-0.05,0.344,0.033,0.412,0.19l0.014,0.031
			c0,0,0.068,0.155,0.188,0.426c0.126,0.268,0.275,0.661,0.501,1.11c0.265,0.43,0.5,0.966,0.874,1.469
			c0.179,0.255,0.363,0.52,0.552,0.787c0.208,0.253,0.42,0.511,0.634,0.768c0.202,0.261,0.45,0.497,0.669,0.741
			c0.223,0.243,0.447,0.479,0.677,0.701c0.462,0.452,0.892,0.873,1.26,1.234c0.736,0.73,1.229,1.216,1.229,1.216
			c0.393,0.388,0.397,1.021,0.009,1.413c-0.388,0.392-1.021,0.396-1.413,0.009c-0.026-0.026-0.053-0.055-0.074-0.083L185.394,32.992
			z"/>
		<path fill="#FFFFFF" d="M182.977,36.181c0,0-0.536-0.305-1.34-0.76c-0.403-0.23-0.88-0.594-1.378-0.933
			c-0.244-0.183-0.523-0.338-0.752-0.556c-0.231-0.213-0.469-0.429-0.702-0.646c-0.459-0.443-0.961-0.836-1.341-1.288
			c-0.379-0.45-0.733-0.869-1.036-1.229c-0.601-0.715-1.002-1.192-1.002-1.192c-0.105-0.125-0.088-0.312,0.037-0.418
			c0.113-0.095,0.279-0.09,0.388,0.006l0.023,0.021c0,0,0.455,0.406,1.138,1.017c0.34,0.302,0.733,0.656,1.158,1.035
			c0.422,0.376,0.948,0.675,1.43,1.025c0.243,0.169,0.488,0.337,0.728,0.503c0.237,0.169,0.507,0.268,0.745,0.399
			c0.498,0.24,0.912,0.486,1.341,0.657c0.862,0.337,1.436,0.563,1.436,0.563c0.515,0.201,0.768,0.782,0.566,1.296
			c-0.203,0.515-0.783,0.768-1.298,0.566c-0.043-0.017-0.085-0.037-0.124-0.058L182.977,36.181z"/>
		<path fill="#FFFFFF" d="M223.672,26.434c0,0-0.131,0.314-0.359,0.865c-0.23,0.55-0.565,1.32-0.897,2.271
			c-0.352,0.939-0.734,2.044-1.016,3.249c-0.142,0.601-0.296,1.219-0.382,1.855c-0.11,0.633-0.215,1.274-0.228,1.922
			c-0.049,0.644-0.083,1.287-0.02,1.916c0.04,0.65,0.053,1.204,0.141,1.858c0.152,1.246,0.251,2.489,0.401,3.408
			c0.074,0.474,0.106,0.916,0.2,1.297c0.076,0.392,0.14,0.733,0.195,1.016c0.122,0.623,0.172,0.982,0.172,0.982
			c0.073,0.545-0.307,1.047-0.852,1.121c-0.481,0.067-0.929-0.221-1.077-0.664l-0.033-0.096c0,0-0.103-0.303-0.244-0.837
			c-0.082-0.297-0.18-0.657-0.294-1.071c-0.11-0.42-0.162-0.913-0.259-1.441c-0.095-0.537-0.185-1.105-0.207-1.677
			c-0.042-0.582-0.088-1.195-0.135-1.831c-0.071-0.612-0.051-1.374-0.024-2.06c-0.008-0.71,0.086-1.419,0.2-2.124
			c0.077-0.71,0.245-1.399,0.424-2.071c0.142-0.683,0.384-1.321,0.61-1.938c0.206-0.625,0.478-1.196,0.718-1.742
			c0.233-0.552,0.498-1.048,0.737-1.507c0.483-0.915,0.941-1.649,1.25-2.157c0.32-0.502,0.503-0.79,0.503-0.79
			c0.08-0.125,0.245-0.162,0.369-0.083C223.68,26.176,223.72,26.315,223.672,26.434z"/>
		<path fill="#FFFFFF" d="M220.442,47.919c0,0-0.864-0.39-2.375-1.072c-1.505-0.679-3.652-1.665-6.312-2.474
			c-1.33-0.395-2.785-0.761-4.34-0.938c-0.778-0.098-1.577-0.128-2.393-0.13c-0.38,0.016-0.857,0.027-1.266,0.057
			c-0.412,0.042-0.821,0.061-1.25,0.125c-3.384,0.442-6.983,1.532-9.992,3.501c-1.47,0.976-2.824,2.224-3.76,3.605
			c-0.225,0.34-0.415,0.688-0.529,1.005c-0.117,0.313-0.109,0.579-0.087,0.613c0.002,0.011,0.04,0.092,0.317,0.187
			c0.268,0.078,0.633,0.119,1.015,0.111c0.767-0.01,1.59-0.141,2.381-0.309c0.866-0.17,1.579-0.352,2.351-0.58
			c1.514-0.452,2.937-0.949,4.227-1.479c1.289-0.529,2.446-1.084,3.456-1.603c1.022-0.499,1.889-0.981,2.588-1.397
			c1.404-0.836,2.105-1.398,2.105-1.397l0.019-0.014c0.204-0.161,0.497-0.127,0.658,0.075c0.152,0.189,0.129,0.462-0.041,0.628
			c0,0-0.179,0.172-0.514,0.497c-0.341,0.31-0.853,0.749-1.539,1.244c-1.354,1.021-3.392,2.325-6.01,3.583
			c-1.308,0.625-2.757,1.265-4.358,1.776c-0.784,0.26-1.688,0.515-2.496,0.697c-0.876,0.208-1.788,0.362-2.8,0.392
			c-0.505,0.009-1.047-0.019-1.649-0.186c-0.307-0.104-0.626-0.216-0.949-0.468c-0.318-0.237-0.613-0.6-0.766-1.012
			c-0.286-0.844-0.093-1.538,0.095-2.087c0.208-0.552,0.48-1.017,0.774-1.453c1.186-1.7,2.704-3.034,4.396-4.141
			c3.388-2.14,7.247-3.301,10.915-3.613c0.454-0.052,0.928-0.062,1.387-0.088c0.462-0.016,0.852-0.01,1.326-0.013
			c0.896,0.03,1.771,0.094,2.606,0.228c1.676,0.256,3.219,0.673,4.588,1.167c2.739,0.996,4.859,2.117,6.339,2.881
			c1.463,0.792,2.298,1.243,2.298,1.243c0.227,0.123,0.312,0.407,0.189,0.634C220.93,47.932,220.663,48.018,220.442,47.919z"/>
		<path fill="#FFFFFF" d="M221.425,38.616c0,0,0.139-0.124,0.399-0.356c0.246-0.238,0.592-0.582,1.025-1.065
			c0.855-0.958,2.018-2.4,3.238-4.23c1.198-1.834,2.511-4.079,3.27-6.635c0.196-0.638,0.31-1.292,0.408-1.951l0.043-0.987
			c0-0.288-0.029-0.708-0.041-1.056c-0.097-1.329-0.433-2.727-1.071-3.898c-0.635-1.18-1.554-2.174-2.691-2.838
			c-1.128-0.675-2.431-1.044-3.728-1.188c-0.322-0.055-0.65-0.051-0.973-0.07c-0.147-0.006-0.361-0.022-0.447-0.019l-0.506,0.019
			c-0.347,0.003-0.667,0.025-0.938,0.079c-0.286,0.04-0.57,0.07-0.855,0.157c-1.146,0.267-2.159,0.765-3.01,1.359
			c-0.857,0.589-1.553,1.277-2.105,1.942c-0.554,0.667-1,1.289-1.336,1.826c-0.676,1.072-0.995,1.742-0.995,1.742
			c-0.114,0.237-0.398,0.337-0.638,0.223c-0.226-0.108-0.327-0.371-0.238-0.601l0.013-0.034c0,0,0.273-0.701,0.902-1.887
			c0.639-1.165,1.657-2.876,3.56-4.353c0.947-0.726,2.129-1.348,3.466-1.707c0.325-0.108,0.685-0.164,1.049-0.226
			c0.375-0.074,0.716-0.105,1.043-0.12l0.505-0.034c0.255-0.014,0.381,0.004,0.579,0.006c0.362,0.015,0.728,0.008,1.097,0.062
			c1.473,0.139,3.02,0.535,4.428,1.344c1.424,0.779,2.603,2.063,3.336,3.525c0.755,1.467,1.103,3.037,1.19,4.63
			c0.007,0.383,0.032,0.693,0.024,1.131c-0.036,0.395-0.07,0.787-0.104,1.176c-0.143,0.759-0.309,1.496-0.55,2.188
			c-0.954,2.774-2.424,5.024-3.794,6.829c-1.362,1.815-2.67,3.179-3.638,4.08c-0.478,0.451-0.89,0.796-1.167,1.018
			c-0.28,0.209-0.43,0.32-0.43,0.32c-0.114,0.085-0.274,0.061-0.36-0.052C221.306,38.854,221.325,38.703,221.425,38.616z"/>
	</g>
</g>
</svg>
